<svg xmlns="http://www.w3.org/2000/svg" width="500" viewBox="0 0 375 112.5" height="150" version="1.0"><path d="M92.44 62.92c2.446 0 4.821-.367 7.126-1.109 2.312-.75 4.008-1.46 5.094-2.14l1.625-1.11 6.828 13.672-.938.688c-.398.28-1.324.808-2.781 1.578-1.45.761-3 1.43-4.656 2-1.649.574-3.809 1.082-6.485 1.53-2.68.458-5.445.688-8.297.688-6.542 0-12.746-1.609-18.609-4.828-5.867-3.218-10.594-7.644-14.187-13.281-3.586-5.633-5.375-11.727-5.375-18.281 0-4.957 1.05-9.711 3.156-14.266 2.101-4.55 4.906-8.453 8.406-11.703 3.508-3.25 7.598-5.836 12.266-7.766 4.664-1.937 9.445-2.906 14.343-2.906 4.563 0 8.766.543 12.61 1.625 3.844 1.074 6.562 2.152 8.156 3.235l2.39 1.625-6.827 13.671c-.407-.343-1.012-.754-1.813-1.234-.793-.488-2.387-1.129-4.781-1.922a22.665 22.665 0 0 0-7.25-1.203c-3.875 0-7.352.633-10.422 1.89-3.074 1.25-5.512 2.903-7.313 4.954-1.792 2.043-3.156 4.246-4.093 6.61-.938 2.366-1.407 4.773-1.407 7.218 0 5.355 2.004 10.156 6.016 14.406 4.02 4.242 9.758 6.36 17.219 6.36ZM117.543 77.436V3.967h15.125v34.266h.171c3.926-3.937 8.11-5.906 12.547-5.906 2.164 0 4.317.289 6.453.86 2.133.573 4.18 1.46 6.141 2.655 1.969 1.188 3.563 2.883 4.781 5.079 1.227 2.187 1.844 4.734 1.844 7.64v28.875h-15.11V52.671c0-2.282-.73-4.274-2.187-5.985-1.449-1.707-3.34-2.562-5.672-2.562-2.28 0-4.351.886-6.203 2.656-1.844 1.762-2.765 3.726-2.765 5.89v24.766ZM172.287 77.436V3.967h15.125v73.47ZM200.085 72.233c-4.867-4.332-7.297-9.883-7.297-16.656 0-6.781 2.531-12.348 7.594-16.703 5.07-4.364 11.336-6.547 18.796-6.547 7.344 0 13.536 2.195 18.579 6.578 5.039 4.387 7.562 9.945 7.562 16.672 0 6.719-2.465 12.258-7.39 16.61-4.93 4.355-11.18 6.53-18.75 6.53-7.856 0-14.22-2.16-19.094-6.484Zm11.703-24.094c-1.961 1.938-2.938 4.418-2.938 7.438 0 3.011.938 5.469 2.813 7.375 1.875 1.906 4.351 2.86 7.437 2.86 2.957 0 5.39-.962 7.297-2.891 1.906-1.938 2.86-4.391 2.86-7.36 0-3.008-.985-5.484-2.954-7.422-1.96-1.937-4.359-2.906-7.203-2.906-2.906 0-5.343.969-7.312 2.906ZM295.017 57.624H263.25c0 3.074.992 5.351 2.984 6.828 1.989 1.48 4.157 2.219 6.5 2.219 2.446 0 4.38-.329 5.797-.985 1.426-.656 3.051-1.945 4.875-3.875l10.938 5.453c-4.563 7.637-12.14 11.453-22.735 11.453-6.605 0-12.273-2.257-17-6.78-4.718-4.532-7.078-9.985-7.078-16.36 0-6.383 2.36-11.852 7.078-16.406 4.727-4.563 10.395-6.844 17-6.844 6.946 0 12.598 2.011 16.954 6.031 4.363 4.012 6.546 9.746 6.546 17.203 0 1.031-.03 1.719-.093 2.063Zm-31.344-8.375h16.656c-.344-2.282-1.246-4.032-2.703-5.25-1.45-1.227-3.309-1.844-5.578-1.844-2.512 0-4.508.656-5.984 1.969-1.48 1.312-2.278 3.023-2.391 5.125ZM310.214 59.155c2.738 0 5.062.953 6.969 2.86 1.906 1.906 2.859 4.23 2.859 6.968 0 2.68-.953 4.969-2.86 6.875-1.906 1.906-4.23 2.86-6.968 2.86-2.68 0-4.969-.954-6.875-2.86-1.906-1.906-2.86-4.195-2.86-6.875 0-2.738.954-5.062 2.86-6.969 1.906-1.906 4.195-2.86 6.875-2.86Zm0 0" fill="#fff"/><path fill="none" d="M125.078 61.543v30.898" stroke="#fff" stroke-width="15.462900000000001"/><path fill="none" d="M127.137 61.543v30.898" stroke="#fff" stroke-width="11.33946"/></svg>