<svg xmlns="http://www.w3.org/2000/svg" width="500" viewBox="0 0 375 375" height="500" version="1.0"><defs><clipPath id="a"><path d="M44.402 17.145h286.5v340.5h-286.5Zm0 0"/></clipPath></defs><g clip-path="url(#a)"><path fill="#fff" d="M106.73 187.496c0 59.66 48.54 108.188 108.2 108.188v62.156c-4.18-.004-8.36-.156-12.532-.465a170.71 170.71 0 0 1-24.79-3.676 173.01 173.01 0 0 1-12.128-3.195c-4-1.215-7.953-2.574-11.855-4.082a169.304 169.304 0 0 1-11.527-4.942 168.561 168.561 0 0 1-11.13-5.773 169.75 169.75 0 0 1-20.84-13.926 168.738 168.738 0 0 1-9.593-8.07 171.082 171.082 0 0 1-8.976-8.758 172.103 172.103 0 0 1-8.305-9.394 170.439 170.439 0 0 1-20.48-31.477 172.407 172.407 0 0 1-5.223-11.402 171.667 171.667 0 0 1-4.367-11.754 169.633 169.633 0 0 1-3.493-12.043 170.406 170.406 0 0 1 1.063-86.824 170.114 170.114 0 0 1 20.258-45.703 169.222 169.222 0 0 1 7.093-10.34 169.773 169.773 0 0 1 26.493-28.309 171.466 171.466 0 0 1 16.512-12.39 173.496 173.496 0 0 1 11.788-7.11 170.686 170.686 0 0 1 44.946-16.96c2.238-.5 4.488-.954 6.746-1.364 2.262-.41 4.527-.774 6.8-1.09 2.274-.316 4.551-.586 6.837-.813a168.502 168.502 0 0 1 13.746-.796c2.293-.04 4.59-.036 6.882.02 2.297.05 4.59.151 6.88.296a167.9 167.9 0 0 1 6.859.574c2.285.238 4.562.52 6.832.852a171.918 171.918 0 0 1 13.535 2.523 170.24 170.24 0 0 1 6.68 1.672 175.21 175.21 0 0 1 6.605 1.938c2.192.691 4.363 1.425 6.524 2.207 2.16.777 4.3 1.597 6.43 2.464 2.124.868 4.23 1.774 6.32 2.723 2.09.953 4.16 1.945 6.21 2.977a174.085 174.085 0 0 1 6.082 3.226l-30.277 54.262a107.874 107.874 0 0 0-25.433-10.168 108.059 108.059 0 0 0-27.172-3.457c-59.66 0-108.2 48.539-108.2 108.203Zm189.157 85.426a34.653 34.653 0 0 0-10.027 1.488c-1.083.328-2.145.711-3.192 1.14a35.344 35.344 0 0 0-3.063 1.45 36.408 36.408 0 0 0-2.906 1.742 34.658 34.658 0 0 0-5.234 4.297c-.797.8-1.559 1.637-2.274 2.512a34.243 34.243 0 0 0-5.21 8.691 34.065 34.065 0 0 0-1.141 3.192 33.938 33.938 0 0 0-.824 3.285 33.484 33.484 0 0 0-.496 3.351 33.839 33.839 0 0 0-.168 3.387c0 1.133.054 2.258.168 3.387.109 1.125.273 2.242.496 3.351.218 1.11.496 2.203.824 3.285a34.065 34.065 0 0 0 1.14 3.192 33.726 33.726 0 0 0 1.45 3.062 34.243 34.243 0 0 0 3.762 5.629 34.604 34.604 0 0 0 4.785 4.79 34.307 34.307 0 0 0 5.628 3.761c.997.531 2.02 1.016 3.063 1.45 1.047.429 2.11.812 3.191 1.14a34.653 34.653 0 0 0 13.41 1.32 34.653 34.653 0 0 0 6.641-1.32 35.646 35.646 0 0 0 3.192-1.14 35.344 35.344 0 0 0 3.062-1.45 34.307 34.307 0 0 0 8.14-6.04c.798-.8 1.56-1.636 2.274-2.51a34.243 34.243 0 0 0 5.211-8.692c.434-1.043.813-2.11 1.14-3.192.329-1.082.606-2.175.825-3.285.223-1.11.387-2.226.496-3.351.113-1.13.168-2.254.168-3.387s-.055-2.258-.168-3.387a33.484 33.484 0 0 0-.496-3.351 33.939 33.939 0 0 0-.824-3.285 34.065 34.065 0 0 0-1.14-3.192 33.726 33.726 0 0 0-1.45-3.062 34.243 34.243 0 0 0-3.762-5.629 34.605 34.605 0 0 0-4.785-4.79 35.297 35.297 0 0 0-2.723-2.019 36.408 36.408 0 0 0-2.906-1.742 35.344 35.344 0 0 0-3.062-1.45 35.646 35.646 0 0 0-3.192-1.14 34.653 34.653 0 0 0-10.023-1.488Zm0 0"/></g></svg>